<!-- icon666.com - MILLIONS OF FREE VECTOR ICONS --><svg clip-rule="evenodd" fill-rule="evenodd" stroke-linejoin="round" stroke-miterlimit="2" viewBox="0 0 24 24" xmlns="http://www.w3.org/2000/svg"><g transform="translate(-113)"><path d="m117 9v8h5v2h-7v-16h3v-1h2v4h-2v-1h-1v2h13v-2h-1v1h-2v-4h2v1h3v7.804c.446.259.859.574 1.225.938.714.708 1.246 1.595 1.531 2.561.163.55.243 1.123.244 1.697v.039c-.021 3.293-2.701 5.961-6 5.961-3.311 0-6-2.689-6-6v-.039c.021-3.293 2.701-5.961 6-5.961.341 0 .675.028 1 .083v-1.083zm16 6.974c-.014-2.196-1.801-3.974-4-3.974-2.208 0-4 1.792-4 4v.026c.014 2.196 1.801 3.974 4 3.974 2.208 0 4-1.792 4-4zm-3 1.026v2h-2v-2h-2v-2h2v-2h2v2h2v2zm-9-12v-2h5v2z"></path></g></svg>