<!-- icon666.com - MILLIONS OF FREE VECTOR ICONS --><svg viewBox="0 0 32 32" xmlns="http://www.w3.org/2000/svg"><g id="_21-30" data-name="21-30"><g id="Global"><path d="m16 2a14 14 0 1 0 14 14 14.015 14.015 0 0 0 -14-14zm0 26c-1.253 0-2.879-2.573-3.611-7h7.223c-.733 4.427-2.359 7-3.612 7zm-3.861-9c-.087-.941-.139-1.937-.139-3s.052-2.059.139-3h7.722c.087.941.139 1.937.139 3s-.052 2.059-.139 3zm-8.139-3a11.926 11.926 0 0 1 .395-3h5.746c-.09.994-.141 2-.141 3s.051 2.006.141 3h-5.746a11.926 11.926 0 0 1 -.395-3zm12-12c1.253 0 2.879 2.573 3.612 7h-7.223c.732-4.427 2.358-7 3.611-7zm5.859 9h5.746a11.59 11.59 0 0 1 0 6h-5.746c.09-.994.141-2 .141-3s-.051-2.006-.141-3zm5.041-2h-5.282a18.664 18.664 0 0 0 -2.075-6.465 12.048 12.048 0 0 1 7.357 6.465zm-14.443-6.465a18.664 18.664 0 0 0 -2.075 6.465h-5.277a12.048 12.048 0 0 1 7.352-6.465zm-7.352 16.465h5.277a18.664 18.664 0 0 0 2.075 6.465 12.048 12.048 0 0 1 -7.352-6.465zm14.438 6.465a18.664 18.664 0 0 0 2.075-6.465h5.282a12.048 12.048 0 0 1 -7.357 6.465z" fill="#000000" style="fill: rgb(255, 255, 255);"></path></g></g></svg>