<!-- icon666.com - MILLIONS OF FREE VECTOR ICONS --><svg clip-rule="evenodd" fill-rule="evenodd" image-rendering="optimizeQuality" shape-rendering="geometricPrecision" text-rendering="geometricPrecision" viewBox="0 0 4335 4335" xmlns="http://www.w3.org/2000/svg"><g id="Layer_x0020_1"><g id="_467823224"><g><g><g><path d="m1741 1981c-18 0-35-6-48-20-27-26-27-69 0-96l750-750c26-26 69-26 95 0 27 27 27 70 0 96l-750 750c-13 14-30 20-47 20z" fill="#000000" style="fill: rgb(138, 43, 226);"></path></g><g><path d="m2181 2085c-17 0-35-7-48-20-26-27-26-70 0-96l413-413c26-26 69-26 95 0 27 27 27 70 0 96l-412 413c-13 13-31 20-48 20z" fill="#000000" style="fill: rgb(138, 43, 226);"></path></g></g><g><path d="m3944 2832h-3554c-37 0-67-30-67-67v-2218c0-110 89-199 199-199h3292c109 0 199 89 199 199v2218c-1 37-31 67-69 67zm-3486-135h3419v-2150c0-35-29-64-64-64h-3292c-35 0-63 29-63 64z" fill="#000000" style="fill: rgb(138, 43, 226);"></path></g><g><path d="m3606 2494h-2877c-37 0-68-31-68-68v-1672c0-37 31-67 68-67h2877c37 0 68 30 68 67v1672c-1 37-31 68-68 68zm-2809-136h2741v-1536h-2741z" fill="#000000" style="fill: rgb(138, 43, 226);"></path></g><g><path d="m4267 3523h-4199c-24 0-45-11-58-31-12-20-14-44-4-65l323-691c11-24 35-39 61-39h3555c26 0 50 15 61 39l323 691c10 21 8 45-4 65-13 19-35 31-58 31zm-4093-135h3987l-259-556h-3468z" fill="#000000" style="fill: rgb(138, 43, 226);"></path></g><g><path d="m467 3269c-10 0-20-2-29-6-34-16-49-56-33-90l86-183c15-34 56-49 90-33 33 16 48 56 32 90l-85 183c-12 25-36 39-61 39zm3401 0c-25 0-50-14-61-39l-86-183c-16-34-1-74 33-90s74-1 90 33l85 183c16 34 1 74-32 90-10 4-19 6-29 6z" fill="#000000" style="fill: rgb(138, 43, 226);"></path></g><g><path d="m4097 3987h-3860c-131 0-237-106-237-237v-295c0-37 30-67 68-67h4199c37 0 68 30 68 67v295c0 131-107 237-238 237zm-3962-464v227c0 56 46 102 102 102h3860c56 0 102-46 102-102v-227z" fill="#000000" style="fill: rgb(138, 43, 226);"></path></g><g><path d="m3387 3987h-2439c-38 0-68-30-68-68v-6c0-154 125-280 279-280h2017c154 0 279 126 279 280v6c0 38-30 68-68 68zm-2358-135h2277c-23-49-73-83-131-83h-2016c-57 0-107 34-130 83z" fill="#000000" style="fill: rgb(138, 43, 226);"></path></g><g><path d="m2772 3523h-1210c-22 0-42-10-55-28-12-18-16-40-9-61l121-363c33-98 88-147 165-147h766c77 0 133 49 166 147l121 363c7 21 3 43-10 61-12 18-33 28-55 28zm-1116-135h1022l-91-274c-8-25-21-55-37-55h-766c-15 0-28 30-37 55z" fill="#000000" style="fill: rgb(138, 43, 226);"></path></g></g></g></g></svg>