<!-- icon666.com - MILLIONS OF FREE VECTOR ICONS --><svg id="Layer_1" viewBox="0 0 512 512" xmlns="http://www.w3.org/2000/svg" data-name="Layer 1"><path d="m256 0c141.385 0 256 114.615 256 256s-114.615 256-256 256-256-114.615-256-256 114.615-256 256-256zm-56.876 237.48-42.9-42.877h205.128v-17.173h-205.124l42.9-42.877-12.149-12.153-63.612 63.626 63.611 63.6 12.146-12.152zm125.893 24.884-12.142 12.136 42.869 42.9h-205.1v17.17h205.127l-42.9 42.878 12.149 12.152 63.613-63.626-63.616-63.607zm0-21.4-33.548 33.536 27.748 27.765h-183.707v47.446h183.707l-27.748 27.736 33.549 33.564 85.021-85.037-85.021-85.009zm-104.487-3.488-27.748-27.736h183.707v-47.446h-183.707l27.748-27.737-33.55-33.563-85.019 85.037 85.019 85.008z" fill-rule="evenodd" fill="#000000" style="fill: rgb(255, 182, 193);"></path></svg>