<?xml version="1.0" standalone="no"?>
<!DOCTYPE svg PUBLIC "-//W3C//DTD SVG 20010904//EN"
 "http://www.w3.org/TR/2001/REC-SVG-20010904/DTD/svg10.dtd">
<svg version="1.0" xmlns="http://www.w3.org/2000/svg"
 width="1280.000000pt" height="916.000000pt" viewBox="0 0 1280.000000 916.000000"
 preserveAspectRatio="xMidYMid meet">
<metadata>
Created by potrace 1.15, written by Peter Selinger 2001-2017
</metadata>
<g transform="translate(0.000000,916.000000) scale(0.100000,-0.100000)"
fill="#ff4d4d" stroke="none">
<path d="M2410 9077 c-25 -39 -94 -121 -155 -183 -87 -87 -125 -118 -179 -145
-126 -61 -218 -51 -351 41 -109 75 -203 99 -320 80 -239 -38 -435 -181 -545
-399 l-33 -63 22 -82 c176 -663 284 -1064 288 -1076 4 -8 10 13 14 47 24 191
191 345 462 428 170 51 265 34 317 -59 60 -109 74 -126 118 -147 53 -26 138
-22 245 11 86 27 134 70 229 203 119 166 159 189 397 223 l33 5 -23 26 c-62
67 -221 141 -394 183 -99 25 -150 47 -179 79 -21 23 -20 27 28 136 76 174 123
408 113 570 -6 95 -24 195 -35 194 -4 0 -27 -32 -52 -72z"/>
<path d="M10170 8784 c-63 -58 -134 -121 -157 -140 l-42 -35 -168 20 c-506 62
-780 43 -791 -54 -16 -136 172 -489 486 -912 l106 -143 1409 2 1409 3 30 75
c17 41 39 97 49 124 l20 48 -123 -7 -123 -6 -75 132 c-41 72 -92 164 -113 203
l-39 71 -171 43 c-95 23 -246 65 -337 92 -91 27 -187 54 -214 61 l-48 12 5 41
c3 23 13 116 23 209 l17 167 94 0 93 0 0 50 0 50 -612 0 -613 -1 -115 -105z
m270 -6 c0 -7 -11 -63 -26 -124 l-25 -111 -82 13 c-187 30 -218 37 -210 44 4
5 59 49 122 99 111 89 115 91 167 91 37 0 54 -4 54 -12z m425 -30 c-4 -24 -14
-97 -24 -163 -9 -66 -22 -119 -27 -119 -84 13 -321 58 -326 63 -6 5 33 209 47
249 3 9 47 12 170 12 l166 0 -6 -42z m365 26 c0 -21 -42 -378 -44 -381 -2 -2
-62 9 -134 24 -108 22 -132 30 -132 44 0 9 9 84 20 165 11 82 20 152 20 157 0
4 61 7 135 7 117 0 135 -2 135 -16z"/>
<path d="M579 8657 c-21 -14 -39 -37 -47 -61 -11 -34 -10 -43 5 -75 10 -20 34
-46 53 -59 l35 -23 106 -397 c59 -218 180 -669 269 -1002 89 -333 166 -611
172 -617 16 -20 56 -15 68 7 9 16 -8 92 -84 373 -98 365 -320 1194 -401 1495
l-46 172 20 27 c26 32 28 99 5 132 -18 24 -70 51 -102 51 -11 0 -34 -10 -53
-23z"/>
<path d="M6600 7705 c-136 -47 -801 -275 -890 -305 -30 -10 -215 -73 -410
-140 -195 -67 -380 -130 -410 -140 -30 -10 -215 -73 -410 -140 -195 -67 -380
-130 -410 -140 -30 -10 -201 -69 -380 -130 -179 -61 -350 -120 -380 -130 -30
-10 -215 -73 -410 -140 -195 -67 -380 -130 -410 -140 -30 -10 -215 -73 -410
-140 -195 -67 -380 -130 -410 -140 -30 -10 -215 -73 -410 -140 -195 -67 -380
-130 -410 -140 -178 -60 -447 -153 -459 -159 -10 -6 -8 -12 10 -25 38 -26 -20
-42 549 154 146 51 276 96 290 100 14 4 144 49 290 100 146 51 276 96 290 100
14 4 144 49 290 100 146 51 276 96 290 100 14 4 144 49 290 100 146 51 276 96
290 100 14 4 144 49 290 100 146 50 290 100 320 110 30 10 161 55 290 100 129
45 260 90 290 100 30 10 161 55 290 100 129 45 260 90 290 100 30 10 161 55
290 100 129 45 260 90 290 100 30 10 161 55 290 100 129 45 260 90 290 100 30
10 161 55 290 100 129 45 316 109 415 142 99 34 182 63 185 65 9 8 -25 23 -50
22 -14 0 -81 -20 -150 -44z"/>
<path d="M6700 7671 c-80 -27 -251 -86 -380 -131 -129 -45 -287 -99 -350 -121
-63 -22 -178 -62 -255 -89 -77 -26 -194 -67 -260 -90 -66 -23 -145 -50 -175
-60 -30 -10 -147 -51 -260 -90 -113 -39 -230 -80 -260 -90 -30 -10 -109 -37
-175 -60 -66 -23 -183 -64 -260 -90 -77 -27 -194 -67 -260 -90 -66 -23 -183
-64 -260 -90 -77 -27 -194 -67 -260 -90 -66 -23 -183 -64 -260 -90 -77 -27
-194 -67 -260 -90 -66 -23 -183 -64 -260 -90 -77 -27 -192 -67 -255 -89 -63
-22 -234 -81 -380 -131 -146 -50 -317 -109 -380 -131 -63 -22 -178 -62 -255
-89 -77 -26 -194 -67 -260 -90 -66 -23 -183 -63 -260 -90 -77 -26 -194 -67
-260 -90 -66 -23 -148 -51 -182 -63 -35 -11 -63 -25 -63 -29 0 -20 32 -17 116
12 49 18 139 49 199 70 61 21 162 56 225 78 159 56 335 117 465 162 61 21 281
98 490 170 209 72 430 149 490 170 144 50 323 112 463 161 61 21 163 57 225
78 61 22 165 58 230 80 64 23 168 59 230 80 61 22 164 57 227 79 63 22 234 82
380 132 146 50 316 109 378 131 61 21 164 57 227 79 63 22 167 58 230 80 63
22 167 58 230 80 63 22 167 58 230 80 63 22 168 58 233 81 64 22 167 58 227
79 61 21 163 57 228 79 64 23 170 59 235 82 122 42 313 109 394 137 26 9 44
20 42 24 -7 12 -6 12 -164 -41z"/>
<path d="M6905 7673 c-11 -2 -81 -26 -155 -53 -74 -27 -187 -66 -250 -88 -63
-22 -206 -72 -317 -111 -112 -39 -294 -103 -405 -142 -112 -39 -239 -83 -283
-99 -44 -16 -172 -61 -285 -100 -113 -39 -241 -84 -285 -100 -44 -16 -171 -60
-282 -99 -112 -39 -294 -103 -405 -142 -112 -39 -239 -83 -283 -99 -44 -16
-172 -61 -285 -100 -113 -39 -241 -84 -285 -100 -44 -16 -171 -60 -282 -99
-112 -39 -294 -103 -405 -142 -112 -39 -239 -83 -283 -99 -44 -16 -172 -61
-285 -100 -113 -39 -241 -84 -285 -100 -44 -16 -171 -60 -282 -99 -112 -39
-294 -103 -405 -142 -112 -39 -239 -83 -283 -99 -202 -72 -314 -110 -324 -110
-20 0 -12 -14 23 -42 19 -16 44 -28 55 -28 11 0 115 34 233 76 117 42 314 112
438 156 124 44 324 115 445 158 280 100 607 216 900 320 773 275 1094 389
1350 480 127 45 266 94 310 110 44 16 181 64 305 108 245 87 548 195 900 320
124 44 296 105 383 136 86 31 228 81 315 112 857 304 819 289 797 301 -27 14
-76 22 -100 16z"/>
<path d="M7030 7606 c-19 -8 -123 -46 -230 -85 -107 -38 -307 -110 -445 -159
-137 -50 -340 -122 -450 -162 -225 -80 -382 -136 -665 -238 -107 -39 -285
-103 -395 -142 -195 -70 -256 -91 -670 -240 -414 -149 -475 -170 -670 -240
-110 -39 -285 -102 -390 -140 -104 -38 -280 -101 -390 -140 -195 -70 -256 -91
-670 -240 -417 -150 -480 -173 -483 -175 -2 -2 22 -22 52 -45 64 -48 60 -48
211 8 44 16 305 112 580 212 275 100 534 195 575 210 41 15 300 110 575 210
275 100 534 195 575 210 41 15 300 110 575 210 275 100 534 195 575 210 41 15
300 110 575 210 275 100 534 195 575 210 41 15 226 83 409 149 184 67 342 126
350 131 12 6 6 12 -24 25 -56 24 -104 27 -145 11z"/>
<path d="M7045 7489 c-244 -90 -240 -88 -570 -209 -154 -56 -314 -115 -355
-130 -41 -15 -176 -65 -300 -110 -124 -45 -259 -95 -300 -110 -41 -15 -176
-65 -300 -110 -124 -45 -259 -95 -300 -110 -41 -15 -176 -65 -300 -110 -124
-45 -259 -95 -300 -110 -41 -15 -174 -64 -295 -108 -121 -45 -368 -135 -550
-202 -181 -67 -451 -166 -600 -220 -148 -54 -418 -153 -600 -220 -181 -67
-381 -140 -442 -162 -62 -22 -113 -44 -113 -48 0 -23 47 -11 231 56 112 42
276 102 364 134 88 32 259 95 380 140 305 113 572 211 760 280 88 32 259 95
380 140 121 45 292 108 380 140 88 32 259 95 380 140 121 45 292 108 380 140
88 32 259 95 380 140 121 45 292 108 380 140 88 32 259 95 380 140 121 45 292
108 380 140 88 32 259 95 380 140 121 45 258 95 305 112 47 17 89 35 95 39 26
24 -58 1 -230 -62z"/>
<path d="M7030 7436 c-242 -91 -595 -222 -945 -351 -99 -37 -238 -89 -310
-115 -71 -26 -191 -71 -265 -98 -74 -28 -198 -73 -275 -102 -77 -29 -201 -74
-275 -102 -328 -121 -406 -150 -590 -218 -183 -67 -269 -99 -595 -220 -71 -26
-193 -71 -270 -100 -77 -29 -200 -74 -272 -101 -73 -27 -193 -71 -265 -98 -73
-27 -196 -72 -273 -101 -77 -29 -198 -74 -270 -100 -71 -26 -193 -71 -270
-100 -129 -48 -296 -110 -354 -132 -23 -8 -23 -9 -5 -29 31 -35 68 -49 100
-40 16 5 400 148 854 319 454 171 1397 525 2095 787 1982 744 2508 942 2540
955 l30 12 -35 13 c-64 24 -99 16 -350 -79z"/>
<path d="M7415 7476 c-22 -8 -195 -72 -385 -144 -352 -133 -681 -257 -1305
-492 -192 -73 -486 -183 -652 -246 -167 -63 -439 -165 -605 -228 -167 -63
-423 -159 -570 -215 -148 -56 -388 -146 -535 -202 -148 -56 -405 -153 -573
-216 -168 -63 -424 -160 -570 -215 -146 -55 -277 -104 -292 -110 -31 -11 -36
-23 -14 -31 14 -6 37 2 381 133 227 86 404 153 660 250 285 108 645 244 915
347 80 30 226 86 325 123 99 37 245 93 325 123 80 30 231 87 335 127 321 121
611 231 915 347 80 30 226 86 325 123 99 37 245 93 325 123 80 30 231 87 335
127 105 40 255 97 335 127 80 30 190 72 245 93 137 52 135 51 135 61 0 11 -6
11 -55 -5z"/>
<path d="M7460 7445 c-37 -15 -157 -60 -380 -145 -74 -28 -169 -64 -210 -80
-41 -16 -136 -52 -210 -80 -74 -28 -169 -64 -210 -80 -41 -16 -408 -156 -815
-310 -830 -315 -919 -349 -1025 -390 -41 -16 -136 -52 -210 -80 -74 -28 -169
-64 -210 -80 -41 -16 -136 -52 -210 -80 -74 -28 -169 -64 -210 -80 -41 -16
-136 -52 -210 -80 -74 -28 -175 -67 -225 -86 -49 -19 -378 -144 -730 -278
-352 -134 -639 -247 -638 -252 5 -20 47 -13 145 25 110 42 486 187 838 321
118 45 260 99 315 120 55 21 219 84 365 140 347 132 424 162 675 258 116 44
329 126 475 182 146 55 299 114 340 130 41 16 192 74 335 128 143 55 357 137
475 182 315 120 451 172 680 260 205 79 649 248 832 318 54 20 98 40 98 45 0
11 -41 7 -80 -8z"/>
<path d="M12040 7408 c-180 -89 -444 -91 -620 -5 l-65 32 -75 -38 c-105 -52
-206 -71 -350 -64 -120 5 -219 29 -292 70 l-37 20 -63 -31 c-105 -53 -175 -67
-333 -67 -150 1 -210 13 -311 62 l-52 25 -63 -31 c-104 -50 -179 -66 -316 -66
l-123 0 0 -102 0 -102 58 -7 c113 -14 295 22 399 81 l45 24 61 -30 c69 -35
214 -69 297 -69 120 0 269 35 357 85 l43 24 60 -30 c93 -46 179 -63 315 -62
138 1 246 24 330 72 l52 29 59 -29 c66 -33 222 -69 299 -69 114 0 241 29 338
77 l67 33 38 -25 c20 -14 66 -34 101 -45 72 -23 243 -37 314 -26 l47 7 0 102
0 102 -105 -3 c-130 -5 -245 16 -335 61 l-66 32 -74 -37z"/>
<path d="M7495 7381 c-55 -21 -158 -61 -230 -89 -71 -28 -213 -82 -315 -122
-102 -39 -300 -116 -440 -170 -140 -54 -338 -131 -440 -170 -102 -39 -300
-116 -440 -170 -140 -54 -338 -131 -440 -170 -102 -39 -300 -116 -440 -170
-140 -54 -338 -131 -440 -170 -102 -39 -300 -116 -440 -170 -140 -54 -338
-131 -440 -170 -102 -39 -300 -116 -440 -170 -140 -54 -349 -135 -465 -180
-115 -45 -270 -104 -343 -132 -127 -49 -132 -51 -116 -69 36 -40 1 -51 569
171 110 43 281 110 380 148 99 39 286 112 415 162 129 50 316 123 415 162 99
38 270 105 380 148 110 43 281 110 380 148 99 39 286 112 415 162 129 50 316
123 415 162 99 38 270 105 380 148 198 77 361 141 770 300 710 276 1080 422
1084 426 8 8 -7 15 -40 20 -24 3 -63 -7 -134 -35z"/>
<path d="M7685 7295 c-103 -41 -1550 -617 -3385 -1347 -443 -176 -1088 -433
-1434 -570 l-629 -251 24 -19 c17 -13 35 -17 64 -15 22 3 560 214 1195 469
1064 429 3602 1449 4130 1661 124 50 227 92 229 94 9 7 -9 15 -46 19 -29 3
-65 -7 -148 -41z"/>
<path d="M7985 7273 c-19 -5 -270 -106 -927 -374 -638 -260 -817 -333 -1048
-427 -480 -196 -849 -346 -1085 -442 -220 -90 -398 -162 -1085 -442 -135 -55
-375 -153 -535 -218 -159 -65 -407 -166 -550 -225 -143 -58 -279 -114 -302
-123 -45 -17 -53 -29 -27 -39 16 -6 49 6 379 142 116 48 318 131 450 185 225
92 345 141 833 341 108 45 296 122 417 171 210 86 316 130 820 336 121 49 310
127 420 172 110 45 297 122 415 170 118 48 305 125 415 170 110 45 298 122
418 171 119 49 317 130 440 180 122 50 299 123 392 161 94 38 176 72 183 75 6
3 12 9 12 14 0 10 -3 10 -35 2z"/>
<path d="M7870 7175 c-96 -40 -265 -110 -375 -155 -110 -45 -263 -108 -340
-140 -77 -32 -230 -95 -340 -140 -110 -45 -263 -108 -340 -140 -77 -32 -230
-95 -340 -140 -110 -45 -279 -115 -375 -154 -96 -40 -874 -360 -1727 -712
-854 -351 -1553 -642 -1553 -647 0 -17 35 -19 74 -4 23 8 111 45 196 80 85 36
286 119 445 185 160 66 488 202 730 302 662 274 1007 417 1135 470 63 26 194
80 290 120 252 104 448 186 580 240 63 26 194 80 290 120 96 40 227 94 290
120 63 26 194 80 290 120 96 40 227 94 290 120 121 50 348 144 615 255 88 36
211 87 273 112 108 43 137 64 90 62 -13 0 -102 -33 -198 -74z"/>
<path d="M8075 7146 c-55 -24 -156 -67 -225 -96 -69 -29 -154 -65 -190 -80
-36 -15 -121 -51 -190 -80 -69 -29 -154 -65 -190 -80 -36 -15 -121 -51 -190
-80 -69 -29 -165 -70 -215 -90 -91 -39 -765 -322 -975 -410 -63 -27 -288 -121
-500 -210 -212 -89 -437 -183 -500 -210 -63 -27 -288 -121 -500 -210 -212 -89
-437 -183 -500 -210 -154 -64 -862 -362 -975 -410 -49 -20 -141 -59 -203 -85
l-113 -48 22 -24 c13 -12 33 -23 46 -23 20 0 260 98 613 250 36 15 184 78 330
140 146 62 326 138 400 170 74 32 254 108 400 170 146 62 294 125 330 140 36
15 184 78 330 140 146 62 326 138 400 170 74 32 254 108 400 170 146 62 294
125 330 140 36 15 216 92 400 170 184 78 364 155 400 170 36 15 184 78 330
140 146 62 294 125 330 140 36 15 184 78 330 140 146 62 267 114 270 117 2 2
-2 8 -10 13 -29 19 -87 8 -185 -34z"/>
<path d="M8305 7121 c-27 -10 -1211 -517 -2630 -1126 -1419 -609 -2654 -1139
-2745 -1177 -91 -39 -169 -74 -174 -78 -4 -5 1 -13 12 -19 17 -9 37 -4 112 29
50 22 184 80 298 129 114 49 376 162 582 251 206 89 436 188 510 220 74 32
304 131 510 220 206 89 404 175 440 190 36 15 265 114 510 220 245 106 474
205 510 220 36 15 265 114 510 220 245 106 506 218 580 250 74 32 304 131 510
220 206 89 412 178 458 197 45 19 82 39 82 44 0 13 -19 11 -75 -10z"/>
<path d="M8455 7093 c-16 -4 -929 -400 -1705 -738 -47 -20 -134 -59 -195 -85
-437 -190 -685 -299 -780 -340 -60 -26 -236 -103 -390 -170 -154 -67 -329
-144 -390 -170 -60 -26 -236 -103 -390 -170 -154 -67 -329 -144 -390 -170 -60
-26 -236 -103 -390 -170 -154 -67 -325 -142 -380 -166 -55 -24 -208 -90 -340
-148 -132 -57 -241 -109 -243 -114 -2 -6 6 -13 16 -16 12 -4 94 26 228 85 115
50 279 122 364 159 85 37 250 109 365 160 116 51 280 123 365 160 85 37 247
108 360 158 344 151 1256 550 1420 622 85 37 250 109 365 160 116 51 280 123
365 160 85 37 342 150 570 250 228 100 460 201 515 225 443 193 690 304 693
314 4 11 0 12 -33 4z"/>
<path d="M8245 6881 c-545 -244 -2193 -976 -2600 -1156 -1370 -603 -2638
-1164 -2644 -1171 -3 -3 9 -19 26 -34 37 -33 41 -33 178 30 39 18 201 91 360
162 160 72 399 179 533 239 133 60 351 158 485 218 133 59 375 168 537 241
162 73 383 172 490 220 107 48 328 147 490 220 633 284 790 355 930 417 80 36
254 114 388 174 133 60 352 159 487 219 883 397 783 349 764 361 -41 26 -95 8
-424 -140z"/>
<path d="M8720 6976 c-19 -7 -258 -114 -530 -238 -272 -124 -736 -335 -1030
-468 -294 -133 -632 -286 -750 -340 -118 -54 -406 -184 -640 -290 -234 -106
-522 -236 -640 -290 -118 -54 -357 -162 -530 -240 -173 -78 -412 -186 -530
-240 -118 -54 -377 -171 -575 -260 -198 -90 -364 -166 -369 -171 -5 -4 2 -13
16 -19 26 -12 14 -17 773 330 94 43 301 137 460 210 160 73 344 157 410 187
66 31 217 99 335 153 118 54 325 148 460 210 135 62 342 156 460 210 118 54
375 171 570 260 195 89 402 184 460 210 58 26 265 121 460 210 444 203 854
390 1075 490 93 43 171 82 173 89 5 14 -14 13 -58 -3z"/>
<path d="M6048 5648 c-1539 -710 -2798 -1294 -2798 -1297 1 -12 98 -81 114
-81 9 0 246 109 528 241 282 133 545 256 583 274 39 18 292 136 563 264 270
127 714 335 985 462 270 127 751 353 1067 502 316 148 611 287 655 307 44 20
265 124 490 230 226 106 455 214 511 240 56 26 129 60 163 75 33 15 61 31 61
35 0 10 -80 40 -105 40 -11 0 -1279 -581 -2817 -1292z"/>
<path d="M8870 6816 c-74 -34 -292 -137 -485 -228 -412 -195 -1108 -523 -1600
-755 -192 -91 -395 -187 -450 -213 -55 -26 -257 -122 -450 -213 -192 -90 -552
-260 -800 -377 -247 -117 -605 -286 -795 -375 -190 -89 -406 -192 -480 -227
-74 -35 -197 -93 -273 -129 l-139 -64 33 -27 c18 -16 41 -28 51 -28 10 0 217
95 460 211 244 117 497 238 563 269 66 32 215 102 330 157 116 55 368 176 560
268 380 182 462 221 780 372 116 55 368 176 560 268 384 184 469 224 780 372
116 55 316 151 445 213 129 62 433 207 675 322 242 115 444 214 449 219 10 9
-33 29 -62 29 -9 0 -78 -29 -152 -64z"/>
<path d="M8655 6609 c-264 -127 -520 -250 -570 -274 -49 -23 -153 -73 -230
-110 -77 -37 -198 -95 -270 -130 -399 -191 -1913 -919 -2045 -982 -85 -42
-186 -90 -225 -108 -38 -18 -171 -82 -295 -142 -124 -60 -512 -246 -862 -413
-350 -168 -637 -307 -637 -310 0 -3 18 -18 40 -33 l40 -29 197 95 c108 53 319
155 467 227 149 73 311 152 360 175 50 24 233 113 409 199 175 86 320 156 321
156 2 0 159 77 350 170 191 94 348 170 350 170 1 0 141 68 311 151 170 83 363
177 429 209 129 62 363 176 700 340 116 56 269 130 340 165 72 34 236 114 365
177 129 63 336 163 460 223 124 61 299 146 390 191 l165 82 -37 16 c-21 9 -39
16 -40 16 -2 0 -219 -104 -483 -231z"/>
<path d="M8910 6588 c-201 -99 -432 -213 -515 -253 -82 -40 -348 -170 -590
-290 -242 -120 -548 -270 -680 -335 -132 -65 -393 -193 -580 -285 -576 -284
-960 -472 -1210 -595 -132 -65 -433 -213 -670 -329 -236 -117 -555 -273 -708
-348 l-278 -137 28 -23 c15 -13 36 -28 45 -33 13 -8 223 93 950 456 513 257
1086 542 1273 634 187 92 1029 511 1870 930 1402 698 1528 763 1511 776 -11 8
-34 14 -50 13 -19 0 -173 -70 -396 -181z"/>
<path d="M9085 6527 c-198 -101 -823 -416 -1390 -701 -1094 -551 -1908 -961
-2820 -1421 -308 -156 -666 -336 -795 -400 l-234 -117 34 -29 c19 -16 43 -29
53 -29 17 0 338 157 542 265 44 23 265 136 490 250 226 114 464 236 530 270
66 34 296 151 510 260 215 109 458 232 540 275 83 43 303 155 490 250 187 95
412 210 500 255 88 45 329 168 535 273 206 105 517 263 690 352 173 88 420
213 548 278 127 64 232 119 232 122 0 8 -62 30 -81 30 -8 0 -176 -83 -374
-183z"/>
<path d="M8355 5994 c-687 -355 -1369 -706 -1515 -781 -146 -75 -278 -144
-295 -153 -16 -10 -160 -84 -320 -165 -159 -82 -294 -151 -300 -155 -5 -4
-145 -76 -310 -160 -165 -84 -304 -156 -310 -160 -5 -4 -145 -76 -310 -160
-165 -84 -304 -156 -310 -160 -5 -4 -145 -76 -310 -160 -165 -85 -313 -161
-328 -171 l-28 -16 42 -32 c24 -17 45 -31 48 -31 4 0 233 119 511 263 829 432
1429 746 1525 797 50 26 295 155 545 285 250 131 754 394 1120 585 366 191
917 479 1225 640 308 160 586 306 618 323 53 28 57 32 41 44 -47 34 -46 35
-1339 -633z"/>
<path d="M9785 6570 c-16 -4 -131 -61 -255 -127 -248 -133 -717 -381 -1780
-943 -722 -381 -1589 -840 -2335 -1235 -231 -122 -598 -316 -815 -430 -217
-115 -397 -210 -400 -213 -10 -7 66 -61 87 -62 12 0 486 249 1055 554 568 304
1821 975 2783 1491 963 515 1752 939 1754 941 15 14 -56 32 -94 24z"/>
<path d="M9904 6520 c-17 -7 -519 -277 -1839 -990 -683 -369 -1238 -668 -2020
-1090 -451 -243 -1022 -550 -1268 -683 l-448 -242 33 -27 c18 -16 42 -30 53
-33 14 -4 163 72 490 251 259 141 1298 709 2310 1261 1012 553 2055 1122 2318
1266 262 143 477 264 477 268 0 8 -56 29 -74 28 -6 0 -20 -4 -32 -9z"/>
<path d="M9315 5986 c-861 -481 -2245 -1252 -3070 -1712 -1400 -779 -1669
-930 -1671 -939 -5 -15 74 -68 94 -63 14 4 1310 733 2397 1348 105 59 397 224
650 367 2729 1540 2531 1426 2499 1440 -16 6 -42 12 -59 12 -21 0 -281 -141
-840 -453z"/>
<path d="M10230 6366 c-25 -13 -340 -191 -700 -396 -1116 -635 -2124 -1208
-3465 -1970 -709 -403 -1305 -742 -1324 -753 l-34 -21 39 -33 c21 -18 47 -33
58 -33 10 0 138 69 285 154 334 193 2384 1373 4026 2319 688 396 1254 722
1259 725 11 6 -50 32 -78 32 -11 0 -41 -11 -66 -24z"/>
<path d="M10395 6328 c-18 -10 -2007 -1162 -4504 -2610 -564 -327 -1027 -600
-1029 -606 -2 -6 7 -17 21 -23 22 -10 180 80 1843 1051 1000 584 2252 1314
2781 1623 529 309 959 565 957 569 -7 11 -46 9 -69 -4z"/>
<path d="M10477 6286 c-23 -13 -339 -198 -702 -411 -363 -213 -1571 -924
-2685 -1578 -1114 -655 -2051 -1206 -2082 -1224 -32 -19 -58 -35 -58 -37 0 -9
140 -106 153 -106 12 0 5536 3306 5556 3326 4 4 -35 20 -97 39 -39 12 -46 11
-85 -9z"/>
<path d="M10785 6191 c-11 -5 -470 -285 -1020 -622 -550 -338 -1789 -1098
-2752 -1689 -964 -591 -1753 -1077 -1753 -1080 0 -11 87 -70 103 -70 8 0 194
112 413 248 220 137 1454 905 2744 1707 1290 801 2351 1463 2359 1471 12 10 8
15 -24 28 -42 18 -42 18 -70 7z"/>
<path d="M10915 6128 c-11 -6 -882 -551 -1935 -1211 -3093 -1938 -3555 -2228
-3560 -2234 -5 -5 34 -40 77 -69 18 -13 26 -13 45 -3 13 7 268 168 568 359
300 191 1531 974 2735 1740 1205 766 2192 1394 2194 1396 6 6 -66 34 -86 34
-10 0 -27 -6 -38 -12z"/>
<path d="M10955 5953 c-178 -115 -4067 -2626 -4898 -3162 l-428 -276 33 -28
c79 -68 55 -74 276 70 108 71 1346 882 2751 1803 l2554 1674 -39 17 c-21 10
-46 18 -54 18 -8 1 -96 -52 -195 -116z"/>
<path d="M11315 5978 c-10 -6 -881 -585 -1935 -1286 -1053 -702 -2507 -1669
-3230 -2150 -723 -481 -1316 -876 -1318 -877 -7 -6 84 -85 104 -91 15 -4 87
40 285 174 146 99 1601 1083 3234 2187 1634 1104 2974 2011 2979 2015 9 9 -56
40 -83 40 -9 0 -25 -6 -36 -12z"/>
<path d="M11368 5853 c-62 -42 -601 -409 -1198 -816 -1442 -983 -1775 -1210
-3385 -2307 -1337 -910 -1777 -1210 -1783 -1215 -7 -6 85 -85 105 -91 17 -5
679 449 3240 2222 1770 1225 3224 2233 3232 2240 12 10 8 15 -24 28 -21 9 -46
16 -56 16 -10 0 -69 -35 -131 -77z"/>
<path d="M11440 5677 c-135 -95 -1584 -1115 -3220 -2266 -1636 -1152 -2977
-2096 -2980 -2098 -3 -2 19 -27 48 -55 36 -34 59 -49 71 -45 11 2 502 350
1092 773 2479 1773 3711 2654 4494 3213 457 327 836 599 844 607 12 10 8 15
-24 28 -21 9 -47 16 -59 16 -11 0 -131 -78 -266 -173z"/>
<path d="M10755 5004 c-1306 -943 -3312 -2389 -4475 -3227 -465 -335 -849
-613 -855 -619 -12 -11 88 -108 111 -108 8 0 261 181 562 402 301 221 1737
1275 3192 2341 1455 1066 2651 1945 2659 1952 12 11 8 16 -24 29 -21 9 -47 16
-59 16 -12 0 -483 -333 -1111 -786z"/>
<path d="M11134 5017 c-511 -381 -1577 -1177 -2369 -1768 -792 -591 -1815
-1353 -2272 -1694 l-833 -620 57 -53 c31 -28 63 -52 72 -52 9 0 192 134 406
297 536 407 4384 3329 5225 3967 377 285 703 533 724 550 l39 30 -39 17 c-21
10 -48 18 -60 18 -13 1 -382 -269 -950 -692z"/>
<path d="M12179 5482 c-158 -124 -1846 -1439 -3349 -2611 -2104 -1639 -2770
-2159 -2806 -2189 l-39 -32 45 -41 c25 -23 69 -62 98 -87 l53 -45 32 23 c69
51 6254 5004 6280 5029 18 17 16 19 -60 50 -43 17 -81 31 -84 31 -3 0 -80 -58
-170 -128z"/>
<path d="M12555 5508 c-21 -12 -68 -50 -2440 -1968 -847 -685 -2063 -1668
-2703 -2184 l-1162 -940 22 -23 c12 -13 32 -23 44 -23 14 0 75 43 161 113 76
62 858 700 1738 1418 880 718 2187 1784 2905 2370 718 585 1349 1100 1403
1143 53 44 97 83 97 87 0 7 -25 19 -38 19 -4 0 -16 -6 -27 -12z"/>
<path d="M12680 5472 c-8 -3 -1428 -1169 -3154 -2591 l-3139 -2585 68 -62 c57
-52 72 -61 84 -51 17 13 2041 1710 2721 2282 223 187 1111 932 1972 1655 862
723 1566 1315 1565 1316 -11 11 -105 40 -117 36z"/>
<path d="M11222 3470 c-218 -59 -386 -235 -454 -477 -30 -107 -30 -293 1 -407
54 -205 161 -356 506 -717 l92 -97 166 182 c268 293 358 420 412 579 94 282
31 582 -164 778 -115 115 -234 168 -391 175 -74 3 -112 0 -168 -16z"/>
<path d="M2025 2235 c-429 -78 -779 -419 -873 -850 -24 -113 -24 -351 2 -460
24 -107 66 -213 121 -309 25 -44 45 -82 45 -86 0 -12 -280 -41 -460 -47 -368
-12 -674 51 -763 157 -82 97 -45 222 107 368 135 129 361 264 591 352 44 17
67 28 50 24 -54 -10 -218 -75 -330 -130 -505 -245 -664 -573 -356 -733 208
-108 520 -151 934 -130 111 5 229 13 262 17 l60 8 61 -56 c115 -105 142 -124
279 -190 107 -52 242 -90 343 -97 l82 -6 0 -33 c0 -19 4 -34 8 -34 23 0 127
42 134 54 4 8 34 17 65 21 265 33 545 200 712 425 305 409 293 956 -29 1353
-160 198 -418 347 -670 387 -87 13 -289 11 -375 -5z m-142 -281 c75 -6 87 -9
82 -23 -36 -115 -50 -135 -120 -178 -38 -24 -72 -40 -76 -35 -4 4 -25 50 -48
102 l-42 95 33 28 c23 19 41 26 58 23 14 -3 65 -8 113 -12z m991 -114 c69 -66
176 -205 176 -229 0 -6 -14 -40 -32 -76 -30 -60 -35 -65 -65 -65 -37 0 -37 -2
-24 -85 8 -49 8 -50 -32 -85 -38 -34 -40 -39 -40 -92 1 -43 -4 -61 -18 -74
-17 -15 -19 -14 -46 31 -47 79 -45 78 -83 68 -29 -8 -36 -16 -50 -57 l-16 -49
-15 24 c-9 13 -27 50 -42 82 -14 31 -30 57 -36 57 -5 0 -16 3 -25 6 -11 4 -18
-5 -27 -39 -7 -31 -18 -48 -35 -56 -14 -6 -27 -11 -29 -11 -2 0 -27 27 -55 61
-27 33 -50 57 -50 54 0 -4 16 -41 35 -83 36 -76 36 -78 25 -144 -7 -38 -16
-68 -20 -68 -10 0 -328 197 -349 215 -11 11 -6 27 30 95 l42 82 94 -7 93 -7 0
25 c0 18 -14 38 -47 66 -27 23 -52 41 -57 41 -5 0 -28 -16 -51 -35 l-43 -35
-12 29 c-10 26 -8 33 22 76 25 35 53 58 117 93 l85 46 -54 47 -54 47 35 15
c86 35 103 38 148 22 24 -8 53 -15 65 -15 11 0 93 22 181 49 88 27 166 50 172
50 7 1 46 -31 87 -69z m-1349 -127 c3 -27 9 -58 12 -71 l6 -23 31 30 c18 17
35 31 38 31 4 0 32 -15 63 -34 l55 -33 -99 -118 c-98 -117 -100 -118 -143
-119 l-43 -1 -3 -45 c-3 -42 0 -48 48 -95 43 -42 50 -55 50 -87 0 -21 -2 -38
-5 -38 -3 0 -44 32 -90 72 -77 67 -86 78 -110 143 l-25 70 25 74 c38 113 155
309 176 296 4 -3 10 -26 14 -52z m222 -674 c59 -40 109 -73 111 -74 5 -4 -29
-231 -39 -256 -6 -16 -26 -34 -49 -44 -39 -17 -40 -17 -95 6 -53 23 -55 25
-55 64 0 24 -10 58 -25 84 -22 38 -25 55 -25 146 0 89 3 106 21 129 12 15 27
25 35 22 7 -3 62 -37 121 -77z m1324 -80 c34 -27 52 -59 32 -59 -8 0 -93 50
-93 55 0 9 13 35 17 35 3 0 23 -14 44 -31z m-14 -127 c17 -2 34 -11 37 -19 6
-14 -58 -147 -87 -183 -12 -16 -115 -42 -129 -33 -5 2 -8 30 -8 62 0 57 1 59
61 125 45 49 66 65 78 60 9 -4 30 -9 48 -12z"/>
<path d="M10364 1268 c-131 -159 -239 -295 -239 -301 0 -8 819 -476 835 -477
3 0 18 48 33 107 15 60 58 229 97 378 38 148 68 270 67 271 -1 1 -112 64 -247
139 -135 75 -259 146 -276 156 l-30 18 -240 -291z"/>
<path d="M11460 1390 c-213 -112 -246 -133 -253 -157 -9 -34 -108 -725 -105
-729 2 -1 174 87 383 197 209 109 384 200 389 202 12 4 -146 617 -159 617 -5
-1 -120 -59 -255 -130z"/>
<path d="M11810 1488 c0 -2 33 -128 73 -282 l73 -278 394 -220 c217 -121 400
-222 406 -225 6 -2 -67 148 -162 334 -96 186 -176 345 -179 354 -6 18 -607
332 -605 317z"/>
</g>
</svg>
